<svg id="Layer_1" data-name="Layer 1" xmlns="http://www.w3.org/2000/svg" viewBox="0 0 32 32"><defs><style>.cls-1{fill:#fff;}</style></defs><title>Accessible</title><g id="Icons_Features_Accessible" data-name="Icons/Features/Accessible"><path class="cls-1" d="M23.81,20.57l.19.07.22.08.31.11c.24.07.53.16.88.23a6.71,6.71,0,0,0,1.2.14h.52l.18,0,.18,0,.18,0,.19,0,.09,0H28l.21-.06.17-.06.09,0,.09,0,.09,0,.09,0a3.69,3.69,0,0,0,.7-.45,2.89,2.89,0,0,0,1-1.38l0-.1s0-.07,0-.1l0-.1h0v-.24s0,0,0,0,0-.06,0-.09,0-.13,0-.21a2.56,2.56,0,0,0-.25-.87,3,3,0,0,0-.55-.8l-.18-.17-.09-.08-.1-.08-.1-.07-.1-.07h0l0,0-.07,0-.07,0h-.06l-.1-.05-.12-.05-.25-.1a4.19,4.19,0,0,0-.53-.16,5,5,0,0,0-1.14-.12,5.51,5.51,0,0,0-.59,0c-.2,0-.39.05-.61.1l-.14,0-.15,0-.3.08-.61.2a11.84,11.84,0,0,0-1.23.55l-.62.33-.63.37-.16.1-.15.1-.3.19-.61.4-.31.21-.31.21-.31.21-.31.22c-.83.59-1.69,1.21-2.59,1.82A32.21,32.21,0,0,1,14,22.3l-.78.4-.81.38-.84.34-.43.15-.22.07-.11,0-.05,0-.06,0h0l-.39.12-.5.13-.47.1-.48.08-.49.06-.49,0a10,10,0,0,1-1,0,8.21,8.21,0,0,1-2.1-.35,6.71,6.71,0,0,1-2-1l-.12-.09-.06,0-.09-.07,0,0-.15-.13-.08-.06,0,0,0,0-.06-.06-.24-.24-.06-.06L1.75,22l-.09-.11-.18-.22c-.11-.15-.22-.3-.33-.46a7.13,7.13,0,0,1-.87-2,8,8,0,0,1-.28-2,7.8,7.8,0,0,1,0-1c0-.16,0-.32.06-.48v-.06l0-.09,0-.09,0-.18.06-.26c0-.08,0-.18.07-.25s.09-.31.14-.45.1-.3.16-.44l.09-.22.1-.21c.13-.28.27-.56.42-.82l.24-.39L1.72,12A10.34,10.34,0,0,1,7.26,8.09a9.68,9.68,0,0,1,1.58-.31l.2,0h1.31a11.54,11.54,0,0,1,1.39.14l.64.12.61.15.29.08.07,0h.09l.13,0,.53.17.55.2.51.21.48.21.46.22.43.23.41.23a15.53,15.53,0,0,1,1.39.92,13.16,13.16,0,0,1,1.71,1.52c.18.19.31.34.4.44l.13.16-.28.32-.18-.08L19.9,13l-.31-.14c-.46-.21-1.14-.5-2-.8-.44-.14-.92-.3-1.45-.43l-.4-.1-.42-.09c-.29-.06-.58-.12-.89-.16L14,11.17l-.46-.05L13,11.06h-.49a11.21,11.21,0,0,0-2,.07l-.25,0-.12,0-.12,0-.11,0-.14,0-.08,0h0l-.12,0a6.54,6.54,0,0,0-.92.33,7,7,0,0,0-1.73,1.1,7.27,7.27,0,0,0-1.39,1.61,6.64,6.64,0,0,0-.49.94l-.05.12,0,.12,0,.12,0,.12c0,.08-.05.17-.08.25s0,.07,0,.11l0,.1,0,.18,0,.09v0c0,.08,0,.17,0,.25s0,.34,0,.51a4.66,4.66,0,0,0,.07,1,3.56,3.56,0,0,0,.28.89l.1.19.06.09,0,0v0H5l0,.05h0v0l.07.07.14.14,0,0,0,0,0,0,0,0a2.58,2.58,0,0,0,.76.51,4,4,0,0,0,1.07.29,6,6,0,0,0,.62.05h.65l.33,0,.33,0,.3-.05.39-.09.66-.18.69-.23.68-.27.68-.3c.9-.42,1.8-.92,2.69-1.44S17,17,17.86,16.44l.34-.2.35-.2.34-.2.35-.2.71-.39.36-.19.18-.09.17-.08.34-.16.17-.08.11-.05.09,0,.74-.32a14.33,14.33,0,0,1,1.53-.53l.8-.19.4-.07.2,0,.22,0c.25,0,.54,0,.81-.05a7.76,7.76,0,0,1,.82,0,7.05,7.05,0,0,1,1.58.32,6.07,6.07,0,0,1,.74.3l.35.18.17.1.18.12,0,0h0l.07,0,.15.11.15.13.15.13.14.13.13.14c.09.09.17.19.25.29a4.54,4.54,0,0,1,.71,1.28A3.87,3.87,0,0,1,32,18.06a3.29,3.29,0,0,1,0,.36l0,.19v.14l0,.17,0,.16-.05.16-.06.15A3.8,3.8,0,0,1,31,20.45a4.52,4.52,0,0,1-.88.75,4.81,4.81,0,0,1-1,.48l-.12,0-.12,0-.12,0-.12,0-.25.06-.22,0H28l-.23,0h-.85l-.39,0a7.41,7.41,0,0,1-1.3-.3,8.71,8.71,0,0,1-.9-.35L24,21.16,23.8,21,23.62,21Z"/></g></svg>