<svg id="Layer_1" data-name="Layer 1" xmlns="http://www.w3.org/2000/svg" viewBox="0 0 373.78 40"><defs><style>.cls-1{fill:#5c7463;opacity:0.38;}.cls-2{fill:#003d42;}</style></defs><title>Footer Logo</title><path class="cls-1" d="M233.41,18l10.76-6.21a20,20,0,0,0-2-3.46l-10.75,6.21,6.21-10.75a20,20,0,0,0-3.46-2L228,12.55V.1a18.86,18.86,0,0,0-2-.1,13.27,13.27,0,0,0-2,.1V12.54L217.73,1.78a20,20,0,0,0-3.46,2l6.21,10.75-10.75-6.2a20,20,0,0,0-2,3.46L218.48,18H206a18.86,18.86,0,0,0-.1,2,13.27,13.27,0,0,0,.1,2h12.43l-10.76,6.21a20,20,0,0,0,2,3.46l14.22-8.21V39.9a18.86,18.86,0,0,0,2,.1,13.27,13.27,0,0,0,2-.1V23.46l14.22,8.21a20,20,0,0,0,2-3.46L233.41,22h12.43a18.86,18.86,0,0,0,.1-2,13.27,13.27,0,0,0-.1-2Z"/><path class="cls-2" d="M6.48,13.34c2.64,0,4.28,1.09,4.28,3.32a2.78,2.78,0,0,1-1.42,2.6v.07a3.36,3.36,0,0,1,1.86,3.25c0,2.69-2.25,4.08-4.76,4.08H0V13.34Zm-3.8,5h4A1.26,1.26,0,0,0,8.12,17c0-.74-.42-1.27-1.44-1.27h-4Zm0,5.94H6.62a1.69,1.69,0,0,0,1.9-1.73,1.74,1.74,0,0,0-1.66-1.82H2.68Z"/><path class="cls-2" d="M17.2,13.34h10v2.4H19.87v2.53h6.5v2.4h-6.5v3.6h7.57v2.4H17.2Z"/><path class="cls-2" d="M42.73,13.34v2.4H39V26.66H36.29V15.74H32.52v-2.4Z"/><path class="cls-2" d="M57.92,13.34v2.4H54.16V26.66H51.48V15.74H47.72v-2.4Z"/><path class="cls-2" d="M63.47,13.34h10v2.4H66.14v2.53h6.5v2.4h-6.5v3.6H73.7v2.4H63.47Z"/><path class="cls-2" d="M86.94,13.34a3.6,3.6,0,0,1,3.67,3.53q0,.12,0,.23a3.62,3.62,0,0,1-2.32,3.52l2.62,6H88l-2.36-5.81H82.35v5.81H79.67V13.34Zm-.39,5.15a1.29,1.29,0,0,0,1.38-1.37,1.34,1.34,0,0,0-1.3-1.38H82.35v2.75Z"/><path class="cls-2" d="M118.18,20.85h-4.59v5.81h-2.68V13.34h7.27a3.57,3.57,0,0,1,3.67,3.46q0,.15,0,.3a3.58,3.58,0,0,1-3.4,3.75Zm-.44-2.4a1.28,1.28,0,0,0,1.38-1.35,1.33,1.33,0,0,0-1.28-1.37h-4.26v2.71Z"/><path class="cls-2" d="M127.58,13.34h2.68V24.23h6.22v2.44h-8.89Z"/><path class="cls-2" d="M144.34,26.66h-2.79l4.91-13.32h2.14l5.17,13.32h-3l-.87-2.56h-4.76Zm3.27-9.84h-.07l-1.59,4.93h3.25Z"/><path class="cls-2" d="M164.17,24.65c2.14,0,2.69-2.14,2.86-2.81l2.73,1A5.55,5.55,0,0,1,164.17,27c-4.21,0-6-3-6-7,0-3.78,1.53-7,6-7,5.07,0,5.57,4,5.59,4.19l-2.73,1a2.87,2.87,0,0,0-2.86-2.81C162,15.35,161,17.18,161,20S162.14,24.65,164.17,24.65Z"/><path class="cls-2" d="M175.71,13.34h10.06v2.4h-7.38v2.53h6.5v2.4h-6.5v3.6h7.56v2.4H175.71Z"/><path class="cls-2" d="M268.62,18.27H274v2.4h-5.41v6h-2.68V13.34h9.74v2.4h-7.07Z"/><path class="cls-2" d="M286.62,13c4.32,0,5.89,3.45,5.89,7,0,3.8-1.75,7-5.89,7-4.32,0-5.89-3.45-5.89-7C280.74,16.22,282.47,13,286.62,13Zm0,11.68c2.69,0,3.1-2.58,3.1-4.67,0-2.27-.52-4.67-3.1-4.67s-3.1,2.58-3.1,4.67c0,2.26.48,4.66,3.1,4.66Z"/><path class="cls-2" d="M305.87,13.34a3.6,3.6,0,0,1,3.67,3.53q0,.12,0,.23a3.62,3.62,0,0,1-2.33,3.52l2.62,6H307l-2.36-5.81H301.3v5.81h-2.7V13.34Zm-.39,5.15a1.29,1.29,0,0,0,1.38-1.37,1.34,1.34,0,0,0-1.3-1.38h-4.29v2.75Z"/><path class="cls-2" d="M315.74,13.34H325.8v2.4h-7.38v2.53h6.5v2.4h-6.5v3.6H326v2.4H315.74Z"/><path class="cls-2" d="M331.18,23.12l2.53-1.29c.33,2.12,1.83,2.86,3.62,2.86,1.27,0,2.47-.3,2.47-1.66s-1-1.51-1.94-1.73l-2.38-.66c-1.73-.42-3.65-1.51-3.65-3.67,0-2.86,2.64-4,5-4s4.69,1,5.42,3.69l-2.49,1c-.42-1.81-1.36-2.4-2.82-2.4s-2.4.57-2.4,1.48c0,.57.26,1.14,2.12,1.62l2,.53c1.72.44,3.76,1.33,3.76,3.8S340.61,27,337.27,27C334.54,27,332.13,26,331.18,23.12Z"/><path class="cls-2" d="M357.67,13.34v2.4H353.9V26.66h-2.68V15.74h-3.76v-2.4Z"/><path class="cls-2" d="M362.47,23.12,365,21.83c.33,2.12,1.83,2.86,3.62,2.86,1.27,0,2.47-.3,2.47-1.66s-1-1.51-1.94-1.73l-2.38-.66c-1.73-.42-3.65-1.51-3.65-3.67,0-2.86,2.64-4,5-4s4.69,1,5.42,3.69l-2.49,1c-.42-1.81-1.36-2.4-2.82-2.4s-2.4.57-2.4,1.48c0,.57.26,1.14,2.12,1.62l2,.53c1.72.44,3.76,1.33,3.76,3.8S371.9,27,368.56,27C365.83,27,363.41,26,362.47,23.12Z"/></svg>