<svg id="Layer_1" data-name="Layer 1" xmlns="http://www.w3.org/2000/svg" viewBox="0 0 160 160"><defs><style>.cls-1{fill:#003d42;}</style></defs><title>Green Mark Logo</title><path class="cls-1" d="M109.86,72l43-24.85a79.8,79.8,0,0,0-8-13.84l-43,24.83,24.83-43a79.8,79.8,0,0,0-13.84-8L88,50.14V.4C85.37.14,82.7,0,80,0s-5.37.14-8,.4V50.14l-24.85-43a79.8,79.8,0,0,0-13.84,8l24.83,43-43-24.83a79.8,79.8,0,0,0-8,13.84L50.14,72H.4C.14,74.63,0,77.3,0,80s.14,5.37.4,8H50.14l-43,24.85a79.86,79.86,0,0,0,8,13.84L72,93.86V159.6c2.63.26,5.3.4,8,.4s5.37-.14,8-.4V93.86l56.87,32.83a79.86,79.86,0,0,0,8-13.84L109.86,88H159.6c.26-2.63.4-5.3.4-8s-.14-5.37-.4-8Z"/></svg>