<svg id="Layer_1" data-name="Layer 1" xmlns="http://www.w3.org/2000/svg" viewBox="0 0 24 24"><defs><style>.cls-1{fill:#5d9375;}.cls-2{fill:#fff;}</style></defs><title>Natural button</title><path class="cls-1" d="M24,12.62c0,3.31-.41,6.44-2.58,8.61s-5.3,2.64-8.61,2.64A10.39,10.39,0,0,1,5,20.45c-2.17-2.17-5-4.51-5-7.82s2.26-6.2,4.43-8.37S9.5.13,12.81.13s5.69,2.46,7.86,4.63A10.38,10.38,0,0,1,24,12.62Z"/><path class="cls-2" d="M12.4,12C11.22,11.11,9,9.32,9.54,8.31c.28-.49,7.27,2.48,6.59,3.81S12.34,17.53,10.18,17C8.45,16.54,11.29,13.57,12.4,12Z"/></svg>