<svg id="Layer_1" data-name="Layer 1" xmlns="http://www.w3.org/2000/svg" viewBox="0 0 32 32"><defs><style>.cls-1{fill:#fff;}</style></defs><title>Oceanside</title><g id="Icons_Features_Oceanside" data-name="Icons/Features/Oceanside"><path class="cls-1" d="M0,14.23l.09-.4c0-.07,0-.14.05-.22l.08-.27L.33,13l.13-.34c.09-.25.21-.5.34-.79L1,11.46c.08-.15.17-.3.26-.46a11.54,11.54,0,0,1,1.5-2L3,8.76l.26-.25.27-.25L3.85,8l.3-.24.31-.23.16-.12.17-.11.34-.22.36-.21.37-.21.38-.19.1,0,0,0h.06l.18-.08.21-.09L7,6.11,7.47,6a9.13,9.13,0,0,1,.92-.26,7.91,7.91,0,0,1,1-.16l.26,0H10.7l.15,0H11l.53.09a9.44,9.44,0,0,1,1,.27c.32.1.64.22.94.35l.45.19.22.1.11.05.05,0h.06l.2.09.2.1.42.22.8.43c.53.29,1,.58,1.56.85s1,.53,1.5.76l.36.17.18.08.09,0s0,0,0,0h0l0,0,.19.09,0,0,0,0,.08,0,.17.07.17.07,1.32.56a19.37,19.37,0,0,0,2.33.82l.14,0h0l.09,0,.36.07.23,0,.12,0,.14,0,.27,0,.28,0h.55a14,14,0,0,0,2.09-.12c.65-.08,1.24-.19,1.73-.3l1.17-.28.32-.08.11,0L32,11l-.06.1-.17.29c-.08.13-.19.27-.31.45l-.22.27-.26.3a9.25,9.25,0,0,1-1.54,1.35A9.74,9.74,0,0,1,27,15l-.38.12-.2.06-.2,0-.41.09-.43.07-.22,0-.24,0-.5,0-.37,0h-.5a10.14,10.14,0,0,1-1.89-.26,10.59,10.59,0,0,1-1.82-.61,12.49,12.49,0,0,1-1.66-.89c-.25-.16-.55-.36-.76-.52l0,0,0,0h0l0,0-.09-.07L17,12.94l-.36-.28c-.95-.74-1.83-1.49-2.73-2.15L13.27,10l-.32-.22-.17-.12-.18-.12s0,0,0,0h0l0,0-.08-.05-.16-.1-.32-.2c-.21-.13-.43-.24-.63-.34a6.26,6.26,0,0,0-.62-.26l-.3-.1-.13,0h-.08l-.1,0H9.94l-.15,0-.15,0H9.48a5,5,0,0,0-.65,0,6.38,6.38,0,0,0-.67.07l-.34.06-.17,0-.16,0-.19.05h0s0,0,0,0H7.23l-.08,0-.33.1-.32.12L6.17,9l-.31.13-.15.07-.15.07-.3.15L5,9.54l-.28.16-.27.17L4.17,10l-.25.18a11.11,11.11,0,0,0-1.66,1.47c-.11.12-.22.24-.32.36l-.29.35c-.17.23-.34.44-.47.65L1,13.33l-.15.26-.13.22-.1.2-.19.37Zm2.39,2.21.05-.07.16-.2a8.13,8.13,0,0,1,.7-.72c.16-.15.35-.31.56-.47a7,7,0,0,1,.74-.48L5,14.26l.24-.11h.07l.06,0,.11,0L5.81,14l.28-.08.29-.07.3-.06A5.87,5.87,0,0,1,8,13.7l.36,0,.36.06.37.09.18.06.09,0h.1l.15.05.2.08.35.17a7.17,7.17,0,0,1,.66.4,11.21,11.21,0,0,1,1.17.93l.27.24.26.24.51.49c.34.33.66.67,1,1l1,1q.48.48,1,.91l.24.21.24.2.12.1.12.09.25.18a8.2,8.2,0,0,0,1,.57l0,0h0l0,0h0l.08,0,.16.08.08,0,.06,0,.11,0,.24.09.12,0,.13,0,1,.33,1,.29c.32.09.63.18.94.25l.23.05.23,0,.12,0h.07l.29,0,.23,0,.21,0,.23,0,.23,0,.45,0H25.4c.53,0,1,0,1.44-.08H27l.14,0,.27,0,.43-.05.28,0h.1l.28.36,0,.09L28.3,23c-.06.11-.15.23-.26.39l-.18.23-.1.13-.12.13A7.16,7.16,0,0,1,26.34,25l-.22.14-.23.14-.49.27c-.17.09-.35.17-.54.25l-.29.11-.3.11-.31.1-.32.09-.35.08-.35.07-.29.06h-.22l-.18,0-.37,0-.38,0A8.86,8.86,0,0,1,18.34,26a8.74,8.74,0,0,1-1.52-.72l-.18-.11-.18-.12-.36-.25-.19-.14-.09-.07-.07-.06-.13-.11-.07-.06h0l0,0h0l0,0c-.21-.19-.43-.37-.62-.57s-.39-.39-.57-.59c-.36-.4-.71-.8-1-1.2s-.63-.8-.91-1.19l-.42-.59-.4-.58-.76-1.12-.37-.53-.1-.14,0-.07v0h0l0,0L10,17.41a8.74,8.74,0,0,0-.71-.86,4.75,4.75,0,0,0-.37-.34l-.18-.15L8.64,16l-.13-.08,0,0h0l0,0-.1-.06-.2-.1-.21-.09-.22-.07a4,4,0,0,0-.9-.16H6.12l-.2,0-.12,0H5.7l-.21,0-.4.1a6.89,6.89,0,0,0-1.3.52,8.83,8.83,0,0,0-.8.48l-.21.14-.07.05Z"/></g></svg>