<?xml version="1.0" encoding="utf-8"?>
<!-- Generator: Adobe Illustrator 21.0.0, SVG Export Plug-In . SVG Version: 6.00 Build 0)  -->
<svg version="1.1" id="Path_3" xmlns="http://www.w3.org/2000/svg" xmlns:xlink="http://www.w3.org/1999/xlink" x="0px" y="0px"
	 viewBox="0 0 720 360" style="enable-background:new 0 0 720 360;" xml:space="preserve">
<style type="text/css">
	.st0{fill:none;stroke:#043D41;stroke-width:2;stroke-linecap:round;stroke-linejoin:round;stroke-dasharray:0,6;}
	.st1{fill:#043D41;}
</style>
<title>Path 3</title>
<path class="st0" d="M486.4,0c-21.5,9.1,18.6,33.9-10.3,55.9c-28,21.3,27.4,33.3,16,53.9c-16.7,30.6-51.5,17.6-75.3,8.5
	c-10.4-4-26.7-13-37.3-2.8c-11.2,10.8-4.8,31.3,1.2,42.8c5.5,10.4,11.1,15.1,11.9,27.8c1.3,19.4-9.1,27.5-19.8,40
	c-20.4,23.9,8.8,33.1,11.8,54.2c1.7,12-4.9,19.6-12,28.3c-11.8,14.7-12.7,31-12.7,49.6"/>
<circle class="st1" cx="360" cy="354" r="4"/>
</svg>
