<?xml version="1.0" encoding="utf-8"?>
<!-- Generator: Adobe Illustrator 21.0.0, SVG Export Plug-In . SVG Version: 6.00 Build 0)  -->
<svg version="1.1" id="Path_1" xmlns="http://www.w3.org/2000/svg" xmlns:xlink="http://www.w3.org/1999/xlink" x="0px" y="0px"
	 viewBox="0 0 720 360" style="enable-background:new 0 0 720 360;" xml:space="preserve">
<style type="text/css">
	.st0{fill:none;stroke:#043D41;stroke-width:2;stroke-linecap:round;stroke-linejoin:round;}
	.st1{fill:none;stroke:#043D41;stroke-width:2;stroke-linecap:round;stroke-linejoin:round;stroke-dasharray:0,6;}
	.st2{fill:#F5816C;}
	.st3{fill:#FFFFFF;}
	.st4{fill:#043D41;}
</style>
<title>Path 1</title>
<path class="st0" d="M360,8.4c0,0.2,0,0.3,0,0.5"/>
<path class="st1" d="M360.3,14.9c2,17.6,12.4,22.3,24.4,36.9c6.1,7.5,8.6,13.7,6.3,23.2c-2.5,10.4-9.3,12.3-14,20.4
	c-5.2,9-0.2,19.7-3.6,29.2c-2.6,7.3-9.2,9.4-13.5,15.3c-12.1,16.5,12.2,21.3,20.1,32.8c12.1,17.6-0.1,31.7-11.2,43.8
	c-8.7,9.5-13.7,21.1-1.6,30.9c8.9,7.2,21.5,4.6,17.4,19.5c-5.3,19.2-38.7,34.2-54.2,40.9c-18.9,8.3-20.8,35.8-28.3,49"/>
<path class="st0" d="M300.5,359.6l-0.3,0.4"/>
<path class="st2" d="M394,49.5c0,5.5-5.6,8.2-11.2,8.2S373,55,373,49.5s4.4-11.1,9.9-11.1S394,44,394,49.5z"/>
<path class="st3" d="M388,48.7c0,2.4-2.4,3.5-4.8,3.5c-2.4,0-4.2-1.2-4.2-3.5c0-2.4,1.9-4.7,4.2-4.7C385.6,44,388,46.3,388,48.7z"/>
<path class="st4" d="M360,2.2c2,0,3.6,1.5,3.6,3.5c0,0.1,0,0.2,0,0.3c0,2.2-1.4,4.3-3.6,4.3s-3.6-2.1-3.6-4.3
	c-0.2-2,1.3-3.7,3.3-3.8C359.8,2.2,359.9,2.2,360,2.2z"/>
</svg>
