<?xml version="1.0" encoding="utf-8"?>
<!-- Generator: Adobe Illustrator 21.0.0, SVG Export Plug-In . SVG Version: 6.00 Build 0)  -->
<svg version="1.1" id="Path_2" xmlns="http://www.w3.org/2000/svg" xmlns:xlink="http://www.w3.org/1999/xlink" x="0px" y="0px"
	 viewBox="0 0 720 360" style="enable-background:new 0 0 720 360;" xml:space="preserve">
<style type="text/css">
	.st0{fill:none;stroke:#043D41;stroke-width:2;stroke-linecap:round;stroke-linejoin:round;stroke-dasharray:0,6;}
	.st1{fill:#5D9375;}
</style>
<title>Path 2</title>
<path class="st0" d="M312.5,1.9c-0.5,4.3-1.6,8.5-3.4,12.4c-5.8,13.3-14.3,15.5-22.8,25.8C262.7,69,289.4,78,313.2,83.5
	c14.6,3.3,25.6,5.2,35.7,16.9c8.3,9.5,5.7,17.3,8.6,28.9c4.6,18,16.3,17.9,29.8,25c15.2,8.1,15,25.9,18.2,42
	c3.2,16.5,9.4,22.5,22.6,29.5c14,7.4,28.1,6,42,11.9c10.6,4.5,15.9,15,10.8,27.3c-4.3,10.3-16,12.5-22.2,20.6
	c-8.3,11-4.8,25.1-2.3,37.7c4,21-2.9,15.5-14.9,27.1c-2.2,2-3.9,4.5-5,7.2"/>
<path class="st1" d="M358.4,107.5c0,3.3-1.7,6.2-5,6.2s-5.1-2.9-5.1-6.2s1.8-4.8,5.1-4.8S358.4,104.2,358.4,107.5z"/>
</svg>
