<svg id="Layer_1" data-name="Layer 1" xmlns="http://www.w3.org/2000/svg" viewBox="0 0 32 32"><defs><style>.cls-1{fill:#fff;}</style></defs><title>Visitors</title><g id="Icons_Features_Visitors-center" data-name="Icons/Features/Visitors-center"><path class="cls-1" d="M14,9.74c-.16-.52-.29-1-.42-1.55-.21-.9-.39-1.76-.52-2.57-.06-.4-.12-.79-.16-1.16q0-.28-.06-.54c0-.18,0-.35,0-.52,0-.67-.08-1.26-.07-1.75s0-.88,0-1.14,0-.41,0-.41l.36-.1.24.33c.15.21.36.53.6.94l.41.67c.14.24.3.51.46.79l.5.91c.17.32.35.66.52,1l.36.73q.3-.49.6-.95c.44-.67.87-1.27,1.27-1.79s.76-1,1.08-1.33.57-.64.76-.82L20.2.22l.33.17s0,.14,0,.41-.07.65-.15,1.12S20.18,3,20,3.62,19.72,5,19.5,5.76q-.16.58-.35,1.2t-.42,1.26c-.19.56-.4,1.13-.63,1.7.27.83.5,1.7.74,2.59s.54,2,.85,3l.94,3c.31,1,.61,2,.9,2.93l.82,2.75.38,1.28.35,1.19c.22.77.42,1.47.6,2.1s.33,1.17.45,1.62l.28,1,.1.37-.35.14L24,31.66l-.48-1L23.17,30l-.4-.81c-.28-.58-.61-1.23-.95-1.95l-.54-1.12-.57-1.2-1.23-2.59L18.85,21c-.22-.46-.43-.94-.64-1.41l-.32-.72-.32-.72-.64-1.45c-.21-.49-.43-1-.66-1.45l-.41-.86c-.35.65-.7,1.31-1,2l-1.37,2.82-.67,1.38-.65,1.35c-.44.89-.83,1.75-1.22,2.57l-.14.3-.14.3-.27.59-.51,1.12-.45,1-.21.48-.1.23L9,28.76l-.34.83L8.5,30c0,.12-.1.23-.13.34l-.38,1-.13.36-.36-.1.06-.38.17-1.07c.08-.46.21-1,.34-1.67l.05-.25L8.19,28l.13-.52.27-1.12c.21-.78.43-1.62.69-2.5S9.8,22,10.1,21l.46-1.45c.16-.49.33-1,.5-1.48l.25-.75.26-.75.53-1.51c.18-.5.36-1,.52-1.51l.49-1.51c.17-.5.33-1,.5-1.48Q13.79,10.17,14,9.74Z"/></g></svg>